<svg width="411" height="411" viewBox="0 0 411 411" fill="none" xmlns="http://www.w3.org/2000/svg">
<path d="M205.5 411C318.994 411 411 318.994 411 205.5C411 92.0054 318.994 0 205.5 0C92.0054 0 0 92.0054 0 205.5C0 318.994 92.0054 411 205.5 411Z" fill="#24D4DE" fill-opacity="0.04"/>
<path d="M205.936 378.346C301.156 378.346 378.346 301.156 378.346 205.936C378.346 110.716 301.156 33.5257 205.936 33.5257C110.716 33.5257 33.5258 110.716 33.5258 205.936C33.5258 301.156 110.716 378.346 205.936 378.346Z" fill="#24D4DE" fill-opacity="0.06"/>
<path d="M206.046 350.005C285.553 350.005 350.006 285.553 350.006 206.046C350.006 126.538 285.553 62.0846 206.046 62.0846C126.538 62.0846 62.0846 126.538 62.0846 206.046C62.0846 285.553 126.538 350.005 206.046 350.005Z" fill="#49C0F8"/>
<path opacity="0.732096" fill-rule="evenodd" clip-rule="evenodd" d="M185.624 104.231C185.624 127.295 169.064 146.492 147.186 150.58L146.523 150.699L146.569 151.038C146.84 153.084 146.98 155.171 146.98 157.291C146.98 183.332 125.869 204.443 99.8274 204.443H66.7906C65.2759 204.443 63.7779 204.372 62.2998 204.232L62.2968 204.23C63.1045 138.846 107.501 83.9589 167.769 67.2836L167.771 67.2854C178.648 75.9232 185.624 89.2627 185.624 104.231Z" fill="#58A700"/>
<path opacity="0.732096" fill-rule="evenodd" clip-rule="evenodd" d="M276.602 190C302.643 190 323.753 211.112 323.753 237.153C323.753 245.229 321.724 252.832 318.145 259.477L328.807 261.525C331.17 261.979 333.463 262.641 335.668 263.493L335.673 263.494C328.591 286.591 315.855 307.215 299.082 323.753L276.801 323.75C254.908 323.75 237.128 306.136 236.86 284.306L233.153 284.305C207.111 284.305 186 263.195 186 237.153C186 211.112 207.111 190 233.153 190H276.602Z" fill="#58A700"/>
<path opacity="0.732096" fill-rule="evenodd" clip-rule="evenodd" d="M275.179 79.7405C301.053 93.9325 322.09 115.843 335.194 142.373L313.06 142.375C309.344 154.433 298.112 163.197 284.833 163.197H270.017C253.706 163.197 240.483 149.975 240.483 133.664C240.483 117.98 252.71 105.15 268.154 104.189C268.127 103.606 268.115 103.019 268.115 102.429C268.115 94.0463 270.696 86.2664 275.11 79.8418L275.179 79.7405Z" fill="#58A700"/>
<path d="M210.95 85.1099H188.125C177.565 85.1099 169.003 93.6709 169.003 104.231C169.003 114.791 177.565 123.353 188.125 123.353H210.95C221.511 123.353 230.072 114.791 230.072 104.231C230.072 93.6709 221.511 85.1099 210.95 85.1099Z" fill="#BBF3F6"/>
<path fill-rule="evenodd" clip-rule="evenodd" d="M281.184 257C289.334 257 296.292 262.098 299.045 269.277C290.163 279.278 279.907 288.033 268.575 295.245L225.122 295.242C214.561 295.242 206 286.681 206 276.121C206 265.56 214.561 257 225.122 257H281.184Z" fill="#BBF3F6"/>
<path fill-rule="evenodd" clip-rule="evenodd" d="M236.859 295.453C228.71 295.357 221.813 290.177 219.145 282.965C228.144 273.07 238.503 264.437 249.919 257.36L293.369 257.875C303.929 257.999 312.388 266.661 312.264 277.221C312.139 287.78 303.477 296.239 292.918 296.114L236.859 295.453Z" fill="#BBF3F6"/>
<path fill-rule="evenodd" clip-rule="evenodd" d="M162.928 172L175.862 172.002C186.423 172.002 194.984 180.563 194.984 191.123C194.984 193.711 194.469 196.18 193.538 198.432L199.689 198.431C210.249 198.431 218.811 206.992 218.811 217.553C218.811 228.113 210.249 236.675 199.689 236.675H176.864C166.303 236.675 157.742 228.113 157.742 217.553C157.742 214.965 158.257 212.496 159.188 210.244H133C140.693 195.989 150.72 183.18 162.569 172.328L162.928 172Z" fill="#BBF3F6"/>
<path fill-rule="evenodd" clip-rule="evenodd" d="M174.184 172C182.334 172 189.292 177.098 192.045 184.277C183.163 194.278 172.907 203.033 161.575 210.245L118.122 210.242C107.561 210.242 99 201.681 99 191.121C99 180.56 107.561 172 118.122 172H174.184Z" fill="#BBF3F6"/>
</svg>
